<svg width="467" height="444" viewBox="0 0 467 444" fill="none" xmlns="http://www.w3.org/2000/svg">
<path d="M218.547 333.272C190.547 321.605 123.947 286.872 81.5474 241.272C28.5474 184.272 -5.95258 125.772 12.5474 81.7718C31.0474 37.7718 64.0474 21.7718 122.047 17.7718C180.047 13.7718 223.047 41.7718 251.047 69.2718C279.047 96.7718 311.547 138.772 316.047 162.772C320.547 186.772 316.047 200.772 308.047 200.772C300.047 200.772 291.547 181.772 294.047 151.772C296.547 121.772 320.547 58.7718 374.547 21.7718C428.547 -15.2282 455.547 29.2718 458.047 47.7718C460.547 66.2718 460.047 120.772 421.047 177.272C382.047 233.772 318.047 330.272 180.547 436.272" stroke="white" stroke-width="15" stroke-linecap="round"/>
</svg>
