<svg width="472" height="450" viewBox="0 0 472 450" fill="none" xmlns="http://www.w3.org/2000/svg">
<path fill-rule="evenodd" clip-rule="evenodd" d="M401.906 1.4105C373.719 7.5605 345.408 30.5135 323.762 64.7645C316.563 76.1555 308.038 92.4395 303.452 103.56C301.664 107.895 299.887 111.781 299.502 112.194C299.118 112.608 295.451 108.793 291.355 103.718C250.296 52.8585 198.471 20.8355 145.974 13.8885C132.934 12.1625 103.321 13.2055 92.3168 15.7775C46.0108 26.6015 12.4458 55.5595 2.29381 93.4425C-0.564189 104.108 -0.784187 123.71 1.81781 135.902C13.1658 189.074 59.6118 247.9 140.906 312.06C169.18 334.375 211.007 362.943 215.405 362.943C220.672 362.943 225.406 357.12 225.406 350.641C225.406 344.099 222.13 341.055 206.897 333.443C152.363 306.193 116.424 281.025 79.8578 244.481C45.2818 209.926 22.6648 174.483 13.7878 140.942C10.6398 129.048 9.60981 112.212 11.3588 101.246C22.3418 32.4155 120.915 2.1785 204.392 42.0335C237.955 58.0575 267.985 85.0675 288.406 117.597L293.906 126.358L293.897 137.9C293.891 144.248 293.741 159.117 293.563 170.942C293.209 194.393 294.392 203.376 298.653 209.597C304.462 218.077 315.358 218.122 321.779 209.693C325.65 204.611 326.767 198.291 326.123 185.097C325.442 171.132 322.605 160.53 315.401 145.025C308.524 130.223 307.682 126.015 309.839 117.217C313.135 103.765 326.17 79.7165 339.227 62.9945C361.851 34.0215 387.779 17.1195 412.406 15.2895C431.376 13.8805 447.381 22.8625 455.445 39.4425C476.139 81.9925 448.156 159.455 381.037 245.417C355.695 277.874 317.159 320.743 293.105 343.238C285.927 349.95 274.841 360.393 268.468 366.443C251.922 382.151 225.025 405.92 202.406 424.822C191.681 433.784 182.331 441.915 181.627 442.89C179.988 445.162 181.626 449.943 184.043 449.943C187.951 449.943 205.411 437.773 228.277 419.113C266.406 387.997 289.277 365.886 352.794 298.725C361.865 289.135 372.99 276.098 380.138 266.681C383.31 262.501 389.783 253.987 394.521 247.762C411.388 225.601 429.725 197.169 442.13 173.942C457.452 145.256 469.367 109.014 470.98 86.1865C471.281 81.9275 471.661 77.0855 471.825 75.4265C472.418 69.4265 470.495 51.8245 468.421 44.2635C459.626 12.2085 432.505 -5.2655 401.906 1.4105ZM308.792 161.048C310.613 168.405 311.072 184.085 309.58 187.942L308.612 190.442L307.409 187.442C304.349 179.81 301.927 152.754 304.109 150.572C305.142 149.539 306.937 153.554 308.792 161.048Z" fill="black"/>
</svg>
